<?xml version="1.0" encoding="UTF-8"?>
<svg xmlns="http://www.w3.org/2000/svg" xmlns:xlink="http://www.w3.org/1999/xlink" width="74px" height="74px" viewBox="0 0 74 74" version="1.1">
<g id="surface1">
<path style=" stroke:none;fill-rule:nonzero;fill:rgb(14.509804%,2.745098%,30.196078%);fill-opacity:1;" d="M 49.042969 15.242188 L 53.65625 10.632812 C 54.875 9.3125 52.992188 8.195312 52.21875 7.3125 C 51.703125 6.792969 50.859375 6.792969 50.335938 7.3125 L 45.722656 11.925781 C 41.359375 16.46875 33.476562 16.472656 29.117188 11.925781 L 24.503906 7.3125 C 23.984375 6.792969 23.140625 6.792969 22.621094 7.3125 L 21.183594 8.746094 C 20.664062 9.265625 20.664062 10.109375 21.183594 10.632812 L 25.796875 15.242188 C 31.902344 21.613281 42.933594 21.613281 49.042969 15.242188 Z M 49.042969 15.242188 "/>
<path style=" stroke:none;fill-rule:nonzero;fill:rgb(14.509804%,2.745098%,30.196078%);fill-opacity:1;" d="M 53.65625 64.90625 C 54.171875 64.390625 54.171875 63.546875 53.65625 63.023438 L 49.042969 58.410156 C 42.933594 52.042969 31.902344 52.042969 25.796875 58.410156 L 21.183594 63.023438 C 19.964844 64.339844 21.84375 65.460938 22.621094 66.34375 C 23.136719 66.863281 23.980469 66.863281 24.503906 66.34375 L 29.117188 61.730469 C 33.476562 57.183594 41.359375 57.183594 45.722656 61.730469 L 50.335938 66.34375 C 50.851562 66.863281 51.695312 66.863281 52.21875 66.34375 Z M 53.65625 64.90625 "/>
<path style=" stroke:none;fill-rule:nonzero;fill:rgb(14.509804%,2.745098%,30.196078%);fill-opacity:1;" d="M 59.007812 48.449219 L 63.621094 53.0625 C 64.9375 54.28125 66.058594 52.402344 66.941406 51.628906 C 67.457031 51.109375 67.457031 50.265625 66.941406 49.742188 L 62.328125 45.128906 C 57.777344 40.769531 57.777344 32.886719 62.328125 28.523438 L 66.941406 23.910156 C 67.457031 23.394531 67.457031 22.550781 66.941406 22.027344 L 65.503906 20.589844 C 64.988281 20.074219 64.144531 20.074219 63.621094 20.589844 L 59.007812 25.203125 C 52.636719 31.3125 52.636719 42.34375 59.007812 48.449219 Z M 59.007812 48.449219 "/>
<path style=" stroke:none;fill-rule:nonzero;fill:rgb(14.509804%,2.745098%,30.196078%);fill-opacity:1;" d="M 66.777344 62.871094 L 55.683594 51.773438 C 47.488281 43.910156 47.488281 29.761719 55.683594 21.882812 L 66.777344 10.804688 C 68.007812 9.488281 66.09375 8.351562 65.34375 7.484375 C 64.820312 6.960938 63.964844 6.960938 63.457031 7.484375 L 52.363281 18.5625 C 44.5 26.757812 30.335938 26.773438 22.472656 18.5625 C 20.496094 16.574219 13.542969 9.636719 11.390625 7.484375 C 10.074219 6.253906 8.953125 8.140625 8.070312 8.917969 C 7.546875 9.441406 7.546875 10.28125 8.070312 10.804688 C 8.769531 11.503906 18.539062 21.273438 19.152344 21.882812 C 27.390625 30.121094 27.390625 43.535156 19.152344 51.773438 C 16.667969 54.273438 11.421875 59.519531 8.070312 62.871094 C 7.335938 63.605469 7.742188 64.578125 8.445312 65.128906 L 9.507812 66.191406 C 10.03125 66.699219 10.867188 66.699219 11.390625 66.191406 L 20.601562 56.980469 C 28.675781 47.277344 43.300781 46.003906 52.363281 55.09375 L 63.457031 66.191406 C 63.964844 66.699219 64.820312 66.699219 65.34375 66.191406 C 66.027344 65.367188 67.792969 64.351562 66.941406 63.082031 C 66.894531 63.007812 66.835938 62.933594 66.777344 62.875 Z M 45.675781 43.460938 C 45.933594 44.449219 45.035156 45.347656 44.050781 45.089844 C 39.714844 43.941406 35.140625 43.941406 30.804688 45.089844 C 29.800781 45.347656 28.90625 44.449219 29.175781 43.460938 C 30.308594 39.125 30.308594 34.554688 29.175781 30.214844 C 28.90625 29.214844 29.800781 28.316406 30.804688 28.589844 C 35.140625 29.738281 39.71875 29.738281 44.050781 28.589844 C 45.035156 28.316406 45.933594 29.214844 45.675781 30.214844 C 44.527344 34.554688 44.527344 39.132812 45.675781 43.460938 Z M 45.675781 43.460938 "/>
<path style=" stroke:none;fill-rule:nonzero;fill:rgb(14.509804%,2.745098%,30.196078%);fill-opacity:1;" d="M 9.34375 53.0625 C 9.863281 53.582031 10.707031 53.582031 11.226562 53.0625 L 15.839844 48.449219 C 22.210938 42.34375 22.210938 31.3125 15.839844 25.203125 L 11.226562 20.589844 C 9.910156 19.375 8.792969 21.253906 7.90625 22.027344 C 7.390625 22.546875 7.390625 23.390625 7.90625 23.910156 L 12.519531 28.523438 C 17.070312 32.886719 17.070312 40.769531 12.519531 45.128906 L 7.90625 49.742188 C 7.390625 50.261719 7.390625 51.105469 7.90625 51.628906 Z M 9.34375 53.0625 "/>
</g>
</svg>
